<?xml version="1.0" encoding="UTF-8" standalone="no"?>
<svg
   xmlns:dc="http://purl.org/dc/elements/1.1/"
   xmlns:cc="http://creativecommons.org/ns#"
   xmlns:rdf="http://www.w3.org/1999/02/22-rdf-syntax-ns#"
   xmlns:svg="http://www.w3.org/2000/svg"
   xmlns="http://www.w3.org/2000/svg"
   viewBox="0 0 816 864"
   height="864"
   width="816"
   xml:space="preserve"
   id="svg2"
   version="1.1"><metadata
     id="metadata8"><rdf:RDF><cc:Work
         rdf:about=""><dc:format>image/svg+xml</dc:format><dc:type
           rdf:resource="http://purl.org/dc/dcmitype/StillImage" /></cc:Work></rdf:RDF></metadata><defs
     id="defs6"><clipPath
       id="clipPath18"
       clipPathUnits="userSpaceOnUse"><path
         id="path16"
         d="M 0,648 H 612 V 0 H 0 Z" /></clipPath></defs><g
     transform="matrix(1.3333333,0,0,-1.3333333,0,864)"
     id="g10"><g
       id="g12"><g
         clip-path="url(#clipPath18)"
         id="g14"><g
           transform="translate(494.4769,438.1499)"
           id="g20"><path
             id="path22"
             style="fill:#8baa95;fill-opacity:1;fill-rule:nonzero;stroke:none"
             d="m 0,0 c 0.521,-0.937 0.055,-6.932 -1.399,-9.508 -6.522,-11.553 -13.576,-22.807 -20.044,-34.388 -2.1,-3.761 -4.827,-3.3 -7.944,-2.821 -2.969,0.457 -5.914,1.061 -8.883,1.517 -3.376,0.519 -6.807,0.773 -10.119,1.547 -0.722,0.169 -1.77,2.646 -1.434,3.061 3.347,4.134 6.671,8.362 10.559,11.962 4.534,4.199 9.546,7.901 14.495,11.628 5.796,4.366 11.747,8.526 17.861,12.975" /></g><g
           transform="translate(235.0612,242.0973)"
           id="g24"><path
             id="path26"
             style="fill:#95acde;fill-opacity:1;fill-rule:nonzero;stroke:none"
             d="m 0,0 c -9.719,9.058 -15.887,19.922 -18.998,32.493 -1.29,5.212 -1.432,10.492 -2.11,15.808 -0.339,2.658 -0.33,5.46 -0.189,8.209 0.89,17.411 8.25,31.783 19.681,44.697 10.65,12.033 23.979,19.157 38.991,23.586 10.44,3.081 21.083,3.406 32.029,2.675 14.455,-0.965 27.502,-5.639 39.375,-13.156 9.565,-6.056 18.257,-13.649 23.551,-24.126 3.406,-6.741 7.671,-13.383 9.332,-20.582 1.86,-8.058 1.877,-16.728 1.443,-25.066 -0.331,-6.37 -1.957,-12.885 -4.209,-18.884 C 136.547,19.396 133.443,13.169 129.462,7.829 120.3,-4.461 108.274,-13.589 94,-19.142 c -7.01,-2.727 -14.669,-3.806 -22.064,-5.501 -1.25,-0.287 -2.651,0.086 -4.379,1.107 1.089,0.833 2.103,1.794 3.28,2.473 2.738,1.579 5.854,2.663 8.234,4.648 1.579,1.317 3.3,4.174 2.851,5.737 -0.46,1.603 -3.393,3.295 -5.403,3.519 C 66.463,-6.038 56.287,-5.853 46.288,-4.411 39.225,-3.392 34.371,1.424 31.092,7.855 28.285,13.36 25.382,18.862 21.97,23.999 18.156,29.739 14.296,29.275 11.621,23.098 8.734,16.433 6.082,9.665 3.157,3.018 2.616,1.788 1.258,0.919 0,0" /></g><g
           transform="translate(453.3893,352.8418)"
           id="g28"><path
             id="path30"
             style="fill:#96acde;fill-opacity:1;fill-rule:nonzero;stroke:none"
             d="m 0,0 c -0.868,3.039 -2.301,6.209 -5.747,5.89 -1.726,-0.16 -3.922,-2.729 -4.66,-4.68 -2.068,-5.472 -3.417,-11.211 -5.18,-16.804 -3.918,-12.43 -10.049,-23.442 -20.542,-31.619 -2.206,-1.72 -3.987,-3.881 -2.726,-6.788 1.206,-2.779 3.991,-2.589 6.51,-2.361 1.09,0.099 2.158,0.477 3.227,0.76 5.284,1.399 10.496,3.573 15.862,4.058 11.828,1.069 23.729,1.556 35.608,1.714 4.29,0.058 8.879,-0.851 12.819,-2.525 3.263,-1.387 5.069,0.042 6.342,1.876 0.878,1.264 0.62,3.806 0.01,5.46 -0.504,1.366 -2.254,2.283 -3.477,3.372 -9.112,8.111 -18.681,15.776 -27.165,24.499 C 6.409,-12.55 3.828,-6.113 0,0 m -27.529,-103.605 c -14.948,3.666 -26.996,11.52 -37.559,22.062 -2.804,2.798 -1.394,5.645 -0.856,8.139 2.96,13.717 1.625,26.985 -3.303,39.978 -1.648,4.345 -3.097,8.884 -5.515,12.791 -3.295,5.322 -2.562,10.245 0.619,14.757 4.361,6.184 8.679,12.678 14.243,17.671 10.743,9.641 23.409,16.062 37.97,18.096 14.358,2.006 28.543,1.46 42.264,-3.558 10.361,-3.789 19.237,-9.799 27.033,-17.79 8.155,-8.357 13.977,-17.854 16.913,-29.021 2.08,-7.909 2.673,-15.925 1.657,-24.253 -1.049,-8.597 -3.47,-16.506 -7.619,-23.952 -5.326,-9.558 -12.773,-17.099 -21.657,-23.538 -9.322,-6.755 -19.798,-10.764 -30.767,-12.7 -10.904,-1.925 -22.158,-1.897 -33.423,1.318" /></g><g
           transform="translate(329.7759,373.6959)"
           id="g32"><path
             id="path34"
             style="fill:#96acde;fill-opacity:1;fill-rule:nonzero;stroke:none"
             d="M 0,0 C -9.274,3.61 -18.542,5.211 -28.191,5.768 -40.561,6.483 -52.53,5.29 -64.166,1.153 c -3.268,-1.162 -4.704,0.003 -5.416,2.969 -2.953,12.31 -5.695,24.729 -2.399,37.33 2.114,8.083 5.157,15.929 7.971,23.815 0.378,1.061 1.724,1.984 2.838,2.537 3.085,1.53 6.307,2.785 9.432,4.239 2.384,1.109 3.989,0.851 4.674,-2.015 0.418,-1.75 1.052,-3.454 1.663,-5.151 2.037,-5.656 5.064,-6.231 9.546,-2.246 5.778,5.138 11.976,9.811 17.646,15.06 3.976,3.681 9.002,3.115 13.568,4.273 4.671,1.184 9.548,1.54 14.315,2.372 3.004,0.525 5.33,2.108 4.978,5.474 -0.315,3.025 -2.582,4.228 -5.514,4.732 -5.846,1.006 -11.643,2.293 -17.354,3.443 -0.561,4.617 0.305,5.658 4.278,5.886 16.258,0.933 31.745,-2.021 45.878,-10.169 10.345,-5.965 19.277,-13.603 26.473,-23.464 6.149,-8.427 10.643,-17.41 13.7,-27.261 2.622,-8.449 3.465,-17.121 2.988,-25.891 -0.075,-1.39 -1.591,-3.428 -2.903,-3.911 C 68.805,8.242 58.273,-0.582 49.052,-11.078 c -2.959,-3.368 -5.125,-7.469 -7.415,-11.375 -2.08,-3.549 -2.828,-3.813 -5.688,-0.905 C 26.574,-13.83 15.895,-6.213 3.5,-1.1 2.475,-0.677 1.362,-0.469 0,0" /></g><g
           transform="translate(250.0061,378.7182)"
           id="g36"><path
             id="path38"
             style="fill:#89a994;fill-opacity:1;fill-rule:nonzero;stroke:none"
             d="m 0,0 c 0.04,-0.632 0.031,-0.92 0.105,-1.185 2.309,-8.371 2.402,-8.558 -5.432,-12.39 -1.823,-0.892 -4.843,-0.762 -6.728,0.132 -11.293,5.355 -22.657,10.642 -33.537,16.769 -14.716,8.287 -29.019,17.308 -43.495,26.021 -12.666,7.624 -24.742,16.025 -35.011,26.782 -0.996,1.043 -1.922,2.151 -3.635,4.076 3.025,0 4.938,0.35 6.675,-0.055 13.716,-3.2 27.629,-5.815 41.026,-10.049 13.104,-4.14 25.834,-9.612 38.425,-15.183 10.026,-4.437 19.621,-9.857 29.355,-14.941 2.913,-1.521 6.095,-2.944 8.321,-5.225 1.62,-1.661 2.045,-4.612 2.686,-7.071 C -0.623,5.294 -0.406,2.801 0,0" /></g><g
           transform="translate(479.7856,495.4516)"
           id="g40"><path
             id="path42"
             style="fill:#89aa95;fill-opacity:1;fill-rule:nonzero;stroke:none"
             d="m 0,0 c -0.664,-9.138 -6.621,-18.581 -10.67,-27.172 -5.974,-12.674 -12.575,-25.052 -18.736,-37.64 -5.645,-11.534 -11.305,-23.073 -16.449,-34.833 -1.858,-4.25 -5.486,-2.86 -8.607,-5.123 -0.717,8.456 -1.766,15.974 -1.787,23.495 -0.009,2.997 2.11,6.071 3.51,8.99 7.004,14.608 14.141,29.152 21.129,43.767 3.672,7.681 6.897,15.584 10.759,23.165 4.241,8.325 10.83,14.275 20.308,17.837 C 0.525,8.133 0.242,5.561 0,0" /></g><g
           transform="translate(228.7388,359.9535)"
           id="g44"><path
             id="path46"
             style="fill:#8aaa95;fill-opacity:1;fill-rule:nonzero;stroke:none"
             d="m 0,0 c 4.323,-2.084 4.013,-3.139 1.546,-6.828 -5.695,-8.515 -12.856,-6.93 -20.665,-4.211 -3.188,1.11 -6.695,1.263 -9.978,2.144 -7.201,1.932 -14.431,3.814 -21.504,6.154 -8.37,2.769 -16.825,5.487 -24.797,9.188 -6.513,3.023 -12.372,7.457 -18.521,11.266 0.251,0.661 0.501,1.323 0.751,1.984 4.41,-0.525 8.82,-1.046 13.229,-1.577 1.096,-0.132 2.197,-0.245 3.28,-0.447 8.578,-1.603 17.16,-3.187 25.725,-4.855 6.156,-1.199 12.313,-2.412 18.424,-3.82 C -27.873,7.93 -23.307,6.552 -18.712,5.3 -12.552,3.622 -6.394,1.933 0,0" /></g><g
           transform="translate(108.7094,293.1799)"
           id="g48"><path
             id="path50"
             style="fill:#89a994;fill-opacity:1;fill-rule:nonzero;stroke:none"
             d="m 0,0 c 8.659,3.011 17.043,5.896 25.497,8.559 2.833,0.892 5.827,1.336 8.779,1.781 4.59,0.692 9.22,1.124 13.809,1.824 6.601,1.006 13.149,2.434 19.776,3.174 9.294,1.039 18.641,1.61 28.769,2.448 C 95.94,12.259 95.456,7.419 94.612,2.643 94.486,1.928 92.709,1.142 91.63,1.032 89.001,0.766 86.324,1.005 83.684,0.811 75.987,0.247 68.301,-0.47 60.605,-1.05 52.492,-1.661 44.375,-2.208 36.256,-2.736 28.557,-3.236 20.857,-3.916 13.15,-4.042 9.087,-4.108 4.995,-3.239 0.953,-2.567 0.436,-2.481 0.146,-1.031 0,0" /></g><g
           transform="translate(164.5628,273.4884)"
           id="g52"><path
             id="path54"
             style="fill:#89a994;fill-opacity:1;fill-rule:nonzero;stroke:none"
             d="m 0,0 c 5.145,3.364 10.007,6.584 14.893,9.769 0.316,0.206 0.806,0.165 1.219,0.2 6.715,0.578 13.434,1.108 20.144,1.742 3.287,0.31 4.304,-1.042 4.403,-4.307 0.106,-3.498 0.994,-6.989 1.715,-10.446 0.603,-2.888 -0.985,-4.016 -3.313,-4.802 -8.066,-2.724 -16.047,-5.731 -24.206,-8.133 -5.725,-1.685 -11.668,-2.673 -17.552,-3.771 -6.42,-1.197 -12.877,-2.21 -19.335,-3.188 -1.283,-0.194 -2.645,0.134 -3.97,0.221 -0.261,0.428 -0.523,0.856 -0.784,1.284 2.82,2.612 5.479,5.428 8.493,7.792 C -12.392,-9.01 -6.294,-4.633 0,0" /></g><g
           transform="translate(369.7289,214.7909)"
           id="g56"><path
             id="path58"
             style="fill:#8aaa95;fill-opacity:1;fill-rule:nonzero;stroke:none"
             d="m 0,0 c -1.12,5.129 -2.212,9.906 -3.319,14.681 -0.334,1.44 -0.896,2.857 -1.003,4.31 -0.079,1.077 0.101,2.414 0.699,3.257 2.923,4.127 5.974,8.168 9.156,12.098 0.271,0.335 2.488,-0.123 2.682,-0.636 1.241,-3.287 2.442,-6.635 3.146,-10.068 1.918,-9.345 3.694,-18.723 5.318,-28.124 1.812,-10.485 3.489,-20.997 5.036,-31.525 0.796,-5.423 1.138,-10.911 1.767,-16.361 0.375,-3.244 0.978,-6.463 1.329,-9.709 0.106,-0.985 -0.286,-2.023 -1.459,-3.33 -0.936,1.492 -2.059,2.9 -2.779,4.49 -6.061,13.399 -11.707,26.961 -15.51,41.21 C 3.344,-13.266 1.7,-6.805 0,0" /></g><g
           transform="translate(226.0132,197.9268)"
           id="g60"><path
             id="path62"
             style="fill:#8baa95;fill-opacity:1;fill-rule:nonzero;stroke:none"
             d="m 0,0 c -8.528,-4.912 -16.613,-10.034 -25.143,-14.261 -5.931,-2.938 -12.457,-4.688 -18.756,-6.855 -0.961,-0.331 -2.133,-0.046 -4.115,-0.046 1.07,1.71 1.614,3.06 2.559,4.013 5.672,5.722 11.184,11.64 17.224,16.952 10.82,9.513 21.942,18.683 33.01,27.91 3.882,3.237 4.72,2.974 11.249,-1.43 2.471,-1.667 5.177,-2.982 7.655,-4.639 0.967,-0.647 2.297,-1.862 2.213,-2.694 -0.11,-1.106 -1.259,-2.335 -2.277,-3.084 C 18.349,11.989 13.022,8.184 7.623,4.488 5.279,2.884 2.716,1.601 0,0" /></g><g
           transform="translate(466.8517,229.365)"
           id="g64"><path
             id="path66"
             style="fill:#8aaa95;fill-opacity:1;fill-rule:nonzero;stroke:none"
             d="m 0,0 c 3.923,-8.279 7.911,-16.172 11.469,-24.254 3.524,-8.007 6.654,-16.189 9.849,-24.337 0.473,-1.207 0.352,-2.648 0.518,-4.081 -3.658,0.522 -54.11,55.77 -56.088,61.34 2.327,0 4.48,-10e-4 6.633,0.001 4.546,0.004 9.093,-0.02 13.639,0.026 2.789,0.029 5.582,0.282 8.363,0.165 C -4.979,8.833 -4.232,7.79 -3.803,7.058 -2.505,4.848 -1.34,2.561 0,0" /></g><g
           transform="translate(426.4759,443.1579)"
           id="g68"><path
             id="path70"
             style="fill:#89a994;fill-opacity:1;fill-rule:nonzero;stroke:none"
             d="m 0,0 c -2.662,-5.283 -5.279,-10.254 -7.897,-15.224 -0.622,0.102 -1.245,0.205 -1.867,0.308 -0.511,4.923 -1.275,9.834 -1.486,14.769 -0.658,15.428 -1.22,30.862 -1.552,46.3 -0.079,3.646 0.85,7.321 1.425,10.965 0.082,0.52 0.919,1.396 1.176,1.321 0.656,-0.193 1.47,-0.711 1.714,-1.307 C -6.17,51.474 -3.488,45.907 -1.825,40.054 0.772,30.91 3.347,21.65 4.508,12.263 4.971,8.521 1.645,4.31 0,0" /></g><g
           transform="translate(404.5906,244.0686)"
           id="g72"><path
             id="path74"
             style="fill:#8baa96;fill-opacity:1;fill-rule:nonzero;stroke:none"
             d="m 0,0 c 5.403,-10.49 10.843,-20.609 15.997,-30.872 1.463,-2.912 2.093,-6.243 3.104,-9.381 -0.426,-0.402 -0.852,-0.804 -1.279,-1.205 -1.936,1.151 -3.989,2.145 -5.79,3.478 C -5.469,-25.033 -18.506,-9.484 -17.659,15.087 -11.351,10.164 -3.477,8.164 0,0" /></g><g
           transform="translate(280.5687,220.0665)"
           id="g76"><path
             id="path78"
             style="fill:#98aedc;fill-opacity:1;fill-rule:nonzero;stroke:none"
             d="m 0,0 c -12.887,-1.527 -22.836,4.653 -32.972,10.564 -4.32,2.519 -4.174,5.091 -1.996,8.961 2.049,3.639 3.309,7.715 5.062,11.532 1.288,2.804 2.853,2.87 4.449,0.292 1.725,-2.785 3.432,-5.585 5.033,-8.443 C -14.866,12.991 -6.474,8.008 4.928,8.173 5.626,8.183 6.444,8.38 7,8.091 8.711,7.204 10.321,6.123 11.971,5.118 10.615,4.103 9.392,2.761 7.874,2.149 5.48,1.184 2.889,0.709 0,0" /></g><g
           transform="translate(257.507,453.176)"
           id="g80"><path
             id="path82"
             style="fill:#8baa96;fill-opacity:1;fill-rule:nonzero;stroke:none"
             d="m 0,0 c -7.665,11.861 -12.724,24.54 -17.193,37.478 0.293,0.28 0.586,0.56 0.879,0.841 1.799,-0.705 3.848,-1.07 5.352,-2.176 5.626,-4.14 11.101,-8.49 16.579,-12.828 3.118,-2.468 6.086,-5.127 9.212,-7.586 2.384,-1.875 1.43,-3.3 -0.146,-5.13 C 10.856,6.154 7.221,1.544 3.049,-3.562 2.101,-2.521 1.087,-1.407 0,0" /></g><g
           transform="translate(324.1168,203.687)"
           id="g84"><path
             id="path86"
             style="fill:#8cab97;fill-opacity:1;fill-rule:nonzero;stroke:none"
             d="M 0,0 C 2.223,8.254 8.033,12.808 17.108,12.828 15.77,9.125 14.805,5.543 13.226,2.257 8.924,-6.701 4.398,-15.552 -0.123,-24.402 c -0.987,-1.932 -2.261,-3.732 -3.548,-5.487 -0.309,-0.421 -1.451,-0.759 -1.763,-0.53 -0.529,0.391 -1.05,1.306 -0.973,1.927 0.601,4.893 1.065,9.831 2.127,14.633 C -3.262,-9.253 -1.576,-4.795 0,0" /></g><g
           transform="translate(292.9982,467.8287)"
           id="g88"><path
             id="path90"
             style="fill:#99afdc;fill-opacity:1;fill-rule:nonzero;stroke:none"
             d="m 0,0 c 4.784,2.092 8.736,5.688 13.615,5.374 l 3.678,-10.425 c -5.58,-4.765 -11.574,-9.882 -18.332,-15.652 -1.145,3.421 -1.489,6.189 -2.914,8.184 -1.237,1.732 -3.699,2.59 -6.343,4.303 0.766,3.677 5.199,4.452 8.26,6.92 C -1.407,-0.789 -0.74,-0.324 0,0" /></g><g
           transform="translate(441.9636,311.2851)"
           id="g92"><path
             id="path94"
             style="fill:#98aedc;fill-opacity:1;fill-rule:nonzero;stroke:none"
             d="m 0,0 c -1.721,-0.192 -3.085,-0.382 -5.233,-0.682 0.479,1.575 0.708,2.806 1.212,3.911 3.169,6.951 6.584,13.797 9.503,20.849 0.966,2.332 2.113,2.748 3.495,1.261 C 15.947,17.842 22.73,10.17 29.655,2.473 19.977,1.657 10.168,0.829 0,0" /></g></g></g></g></svg>